# xmcd CD database file
#
# Track frame offsets:
#	200
#	11044
#	52012
#	63115
#	73855
#	107239
#
# Disc length: 1630 seconds
#
# Revision: 0
# Processed by: cddbd v1.5.1PL2 Copyright (c) Steve Scherf et al.
# Submitted via: CDex 1.51
#
DISCID=52065c06
DTITLE=村八分 - Underground Tapes 1972　KBS京都スタジオ
DYEAR=1972
DGENRE=Japanese Rock
TTITLE0=ぐにゃぐにゃＴａｋｅ１
TTITLE1=脳みそ半分Ｔａｋｅ１
TTITLE2=ぐにゃぐにゃＴａｋｅ２
TTITLE3=ぐにゃぐにゃＴａｋｅ３
TTITLE4=脳みそ半分Ｔａｋｅ３
TTITLE5=鼻からちょうちん
EXTD=YEAR: 1972
EXTT0=
EXTT1=
EXTT2=
EXTT3=
EXTT4=
EXTT5=
PLAYORDER=
